<?xml version="1.0" standalone="no"?>
<!DOCTYPE svg PUBLIC "-//W3C//DTD SVG 1.1//EN" "http://www.w3.org/Graphics/SVG/1.1/DTD/svg11.dtd" >
<svg xmlns="http://www.w3.org/2000/svg" xmlns:xlink="http://www.w3.org/1999/xlink" version="1.1">
<metadata></metadata>
<defs>
<font id="cosmic_alienregular" horiz-adv-x="1536" >
<font-face units-per-em="2048" ascent="1638" descent="-410" />
<missing-glyph horiz-adv-x="500" />
<glyph horiz-adv-x="0" />
<glyph horiz-adv-x="682" />
<glyph unicode=" " />
<glyph unicode="!" horiz-adv-x="1280" d="M0 768h256v-256h512v256h256v256h-256v256h-512v-256h-256v-256zM256 0h512v256h-512v-256z" />
<glyph unicode="&#x22;" d="M512 1024h256v512h-256v-512zM1024 1024h256v512h-256v-512z" />
<glyph unicode="#" d="M0 256h256v-256h256v256h256v-256h256v256h256v256h-256v256h256v256h-256v256h-256v-256h-256v256h-256v-256h-256v-256h256v-256h-256v-256zM512 512v256h256v-256h-256z" />
<glyph unicode="$" d="M0 0h512v-256h256v256h512v768h-512v256h512v256h-512v256h-256v-256h-512v-768h512v-256h-512v-256zM256 768v256h256v-256h-256zM768 256v256h256v-256h-256z" />
<glyph unicode="%" d="M0 0h256v256h-256v-256zM0 768h512v-256h256v256h-256v512h-512v-512zM256 256h256v256h-256v-256zM768 0h512v512h-512v-512zM768 768h256v256h-256v-256zM1024 1024h256v256h-256v-256z" />
<glyph unicode="&#x26;" d="M0 256h256v-256h512v256h-512v256h512v-256h256v-256h256v256h-256v256h256v256h-256v256h-256v-256h-512v256h-256v-256h256v-256h-256v-256zM256 1024h512v256h-512v-256z" />
<glyph unicode="'" d="M512 1024v256h256v256h512v-256h-256v-256h-512z" />
<glyph unicode="(" d="M256 256h256v-256h768v256h-512v768h512v256h-768v-256h-256v-768z" />
<glyph unicode=")" d="M0 0h768v256h256v768h-256v256h-768v-256h512v-768h-512v-256z" />
<glyph unicode="*" d="M0 0h256v256h-256v-256zM0 512h256v-256h256v-256h256v256h256v256h256v256h-256v256h-256v256h-256v-256h-256v256h-256v-256h256v-256h-256v-256zM1024 0h256v256h-256v-256zM1024 1024h256v256h-256v-256z" />
<glyph unicode="+" d="M0 512h512v-512h256v512h512v256h-512v512h-256v-512h-512v-256z" />
<glyph unicode="," d="M256 0v-256h512v256h256v512h-512v-512h-256z" />
<glyph unicode="-" d="M0 512h1280v256h-1280v-256z" />
<glyph unicode="." d="M512 0h512v512h-512v-512z" />
<glyph unicode="/" d="M0 0h512v256h256v256h256v256h256v512h-256v-256h-256v-256h-256v-256h-256v-256h-256v-256z" />
<glyph unicode="0" d="M0 0h1280v1280h-1280v-1280zM256 768v256h768v-768h-512v512h-256z" />
<glyph unicode="1" horiz-adv-x="1280" d="M512 0h512v768h-256v512h-256v-1280z" />
<glyph unicode="2" d="M0 0v768h1024v256h-1024v256h1280v-768h-768v-256h768v-256h-1280z" />
<glyph unicode="3" d="M0 0h1280v768h-256v512h-1024v-256h768v-256h-768v-256h768v-256h-768v-256z" />
<glyph unicode="4" d="M0 512h512v-512h512v512h256v256h-512v512h-256v-512h-256v512h-256v-768z" />
<glyph unicode="5" d="M0 0h1280v768h-1024v256h1024v256h-1280v-768h768v-256h-768v-256z" />
<glyph unicode="6" d="M0 0h1280v768h-1024v256h1024v256h-1280v-1280zM258 256v256h510v-256h-510z" />
<glyph unicode="7" d="M0 1024h768v-1024h512v768h-256v512h-1024v-256z" />
<glyph unicode="8" d="M0 0h1280v768h-256v512h-1024v-256v-1024zM256 256v256h512v-256h-512zM256 768v256h512v-256h-512z" />
<glyph unicode="9" d="M0 0h1280v768h-256v512h-1024v-768h768v-256h-768v-256zM258 768v256h510v-256h-510z" />
<glyph unicode=":" d="M512 0h512v512h-512v-512zM512 768h512v512h-512v-512z" />
<glyph unicode=";" d="M256 0v-256h512v256h256v512h-512v-512h-256zM512 768h512v256h-512v-256z" />
<glyph unicode="&#x3c;" d="M256 512h256v-256h256v-256h512v256h-256v256h-256v256h256v256h256v256h-512v-256h-256v-256h-256v-256z" />
<glyph unicode="=" d="M0 256h1280v256h-1280v-256zM0 768h1280v256h-1280v-256z" />
<glyph unicode="&#x3e;" d="M0 0v256h256v256h256v256h-256v256h-256v256h512v-256h256v-256h256v-256h-256v-256h-256v-256h-512z" />
<glyph unicode="?" horiz-adv-x="1280" d="M0 1024h512v-256h-256v-256h512v256h256v256h-256v256h-768v-256zM256 0h512v256h-512v-256z" />
<glyph unicode="@" d="M0 256h256v-256h1024v256h-768v768h512v-256h-256v-256h512v512h-256v256h-768v-256h-256v-768z" />
<glyph unicode="A" d="M0 0h512v512h512v-512h256v1280h-1280v-1280zM256 768v256h768v-256h-768z" />
<glyph unicode="B" d="M0 0h1024v256h-512v256h512v-256h256v256h-256v256h-768v256h768v-256h256v256h-256v256h-1024v-1280z" />
<glyph unicode="C" d="M0 0h1280v256h-768v512h-256v256h1024v256h-1280v-1280z" />
<glyph unicode="D" d="M0 0h1024v256h256v768h-256v256h-1024v-1280zM256 768v256h768v-768h-512v512h-256z" />
<glyph unicode="E" d="M0 0h1280v256h-768v256h768v256h-1024v256h1024v256h-1280v-1280z" />
<glyph unicode="F" d="M0 0h512v512h768v256h-1024v256h1024v256h-1280v-1280z" />
<glyph unicode="G" d="M0 0h1280v768h-512v-256h256v-256h-512v512h-256v256h1024v256h-1280v-1280z" />
<glyph unicode="H" d="M0 0h512v512h512v-512h256v1280h-256v-512h-768v512h-256v-1280z" />
<glyph unicode="I" d="M0 0h1280v256h-256v512h-256v256h512v256h-1280v-256h512v-768h-512v-256z" />
<glyph unicode="J" d="M0 0h1280v1280h-1280v-256h1024v-256h-256v-512h-512v256h-256v-512z" />
<glyph unicode="K" d="M0 0h512v512h256v-256h256v-256h256v256h-256v256h-256v256h256v256h-256v-256h-512v512h-256v-1280zM1024 1024h256v256h-256v-256z" />
<glyph unicode="L" d="M0 0h1280v256h-768v512h-256l2 512h-258v-1280z" />
<glyph unicode="M" d="M0 0h256v512h256v-256h256v768h256v-1024h256v1280h-1280v-1280z" />
<glyph unicode="N" d="M0 0h512v768h-256v256h768v-1024h256v1280h-1280v-1280z" />
<glyph unicode="O" d="M0 0h1280v1280h-1280v-1280zM256 768v256h768v-768h-512v512h-256z" />
<glyph unicode="P" d="M0 0h512v512h768v768h-1280v-1280zM256 768v256h768v-256h-768z" />
<glyph unicode="Q" d="M0 0h1280v1280h-1280v-1280zM256 768v256h768v-512h-256v-256h-256v512h-256z" />
<glyph unicode="R" d="M0 0h512v512h256v-256h256v256h256v768h-1280v-1280zM256 768v256h768v-256h-768zM1024 0h256v256h-256v-256z" />
<glyph unicode="S" d="M0 0h1280v768h-1024v256h1024v256h-1280v-768h768v-256h-768v-256z" />
<glyph unicode="T" d="M0 1024h512v-1024h512v768h-256v256h512v256h-1280v-256z" />
<glyph unicode="U" d="M0 0h1280v1280h-256v-1024h-512v512h-256v512h-256v-1280z" />
<glyph unicode="V" d="M0 768h256v-512h256v-256h256v256h256v512h256v512h-256v-256h-256v-512h-256v512h-256v256h-256v-512z" />
<glyph unicode="W" d="M0 -2v1280h256v-512h256v256h256v-768h256v1024h256v-1280h-1280z" />
<glyph unicode="X" d="M0 0h512v258h256v-258h512v256h-256v256h-256v256h256v256h256v256h-512v-258h-256v258h-512v-256h256v-256h256v-256h-256v-256h-256v-256z" />
<glyph unicode="Y" d="M0 1024h256v-256h256v-768h512v512l-256 -2v258h256v256h256v256h-512v-258h-256v258h-512v-256z" />
<glyph unicode="Z" d="M0 0h1280v256h-512v256h256v256h256v512h-1280v-256h768v-256h-256v-256h-256v-256h-256v-256z" />
<glyph unicode="[" d="M256 0h1024v256h-512v768h512v256h-1024v-1280z" />
<glyph unicode="\" d="M0 1024v256h512v-256h256v-256h256v-256h256v-512h-256v256h-256v256h-256v256h-256v256h-256z" />
<glyph unicode="]" d="M0 0h1024v1280h-1024v-256h512v-770h-512v-254z" />
<glyph unicode="^" d="M0 1024v256h256v256h768v-256h256v-256h-512v256h-256v-256h-512z" />
<glyph unicode="_" d="M0 0v-256h1280v256h-1280z" />
<glyph unicode="`" d="M512 1280v256h512v-256h256v-256h-512v256h-256z" />
<glyph unicode="a" d="M0 0h512v512h512v-512h256v1280h-1280v-1280zM256 768v256h768v-256h-768z" />
<glyph unicode="b" d="M0 0h1024v256h-512v256h512v-256h256v256h-256v256h-768v256h768v-256h256v256h-256v256h-1024v-1280z" />
<glyph unicode="c" d="M0 0h1280v256h-768v512h-256v256h1024v256h-1280v-1280z" />
<glyph unicode="d" d="M0 0h1024v256h256v768h-256v256h-1024v-1280zM256 768v256h768v-768h-512v512h-256z" />
<glyph unicode="e" d="M0 0h1280v256h-768v256h768v256h-1024v256h1024v256h-1280v-1280z" />
<glyph unicode="f" d="M0 0h512v512h768v256h-1024v256h1024v256h-1280v-1280z" />
<glyph unicode="g" d="M0 0h1280v768h-512v-256h256v-256h-512v512h-256v256h1024v256h-1280v-1280z" />
<glyph unicode="h" d="M0 0h512v512h512v-512h256v1280h-256v-512h-768v512h-256v-1280z" />
<glyph unicode="i" d="M0 0h1280v256h-256v512h-256v256h512v256h-1280v-256h512v-768h-512v-256z" />
<glyph unicode="j" d="M0 0h1280v1280h-1280v-256h1024v-256h-256v-512h-512v256h-256v-512z" />
<glyph unicode="k" d="M0 0h512v512h256v-256h256v-256h256v256h-256v256h-256v256h256v256h-256v-256h-512v512h-256v-1280zM1024 1024h256v256h-256v-256z" />
<glyph unicode="l" d="M0 0h1280v256h-768v512h-256l2 512h-258v-1280z" />
<glyph unicode="m" d="M0 0h256v512h256v-256h256v768h256v-1024h256v1280h-1280v-1280z" />
<glyph unicode="n" d="M0 0h512v768h-256v256h768v-1024h256v1280h-1280v-1280z" />
<glyph unicode="o" d="M0 0h1280v1280h-1280v-1280zM256 768v256h768v-768h-512v512h-256z" />
<glyph unicode="p" d="M0 0h512v512h768v768h-1280v-1280zM256 768v256h768v-256h-768z" />
<glyph unicode="q" d="M0 0h1280v1280h-1280v-1280zM256 768v256h768v-512h-256v-256h-256v512h-256z" />
<glyph unicode="r" d="M0 0h512v512h256v-256h256v256h256v768h-1280v-1280zM256 768v256h768v-256h-768zM1024 0h256v256h-256v-256z" />
<glyph unicode="s" d="M0 0h1280v768h-1024v256h1024v256h-1280v-768h768v-256h-768v-256z" />
<glyph unicode="t" d="M0 1024h512v-1024h512v768h-256v256h512v256h-1280v-256z" />
<glyph unicode="u" d="M0 0h1280v1280h-256v-1024h-512v512h-256v512h-256v-1280z" />
<glyph unicode="v" d="M0 768h256v-512h256v-256h256v256h256v512h256v512h-256v-256h-256v-512h-256v512h-256v256h-256v-512z" />
<glyph unicode="w" d="M0 -2v1280h256v-512h256v256h256v-768h256v1024h256v-1280h-1280z" />
<glyph unicode="x" d="M0 0h512v258h256v-258h512v256h-256v256h-256v256h256v256h256v256h-512v-258h-256v258h-512v-256h256v-256h256v-256h-256v-256h-256v-256z" />
<glyph unicode="y" d="M0 1024h256v-256h256v-768h512v512l-256 -2v258h256v256h256v256h-512v-258h-256v258h-512v-256z" />
<glyph unicode="z" d="M0 0h1280v256h-512v256h256v256h256v512h-1280v-256h768v-256h-256v-256h-256v-256h-256v-256z" />
<glyph unicode="{" d="M0 512h256v-512h1024v256h-512v768h512v256h-1024v-512h-256v-256z" />
<glyph unicode="|" horiz-adv-x="1280" d="M256 0h512v1280h-512v-1280z" />
<glyph unicode="}" d="M0 0h1024v512h256v256h-256v512h-1024v-256h512v-770h-512v-254z" />
<glyph unicode="&#xa0;" />
<glyph unicode="&#xad;" d="M0 512h1280v256h-1280v-256z" />
<glyph unicode="&#xc4;" d="M0 0h512v512h512v-512h256v1280h-1280v-1280zM0 1536h512v256h-512v-256zM256 768v256h768v-256h-768zM768 1536h512v256h-512v-256z" />
<glyph unicode="&#xca;" horiz-adv-x="3072" d="M0 512h256v-256h256v-256h256v256h1280v-256h256v-256h256v256h-256v256h256v256h256v1024h-256v-512h-256v256h-256v256h-256v-256h-768v256h-256v256h-256v-256h256v-256h-256v-256h-256v512h-256v-1024zM256 0v-256h256v256h-256zM768 768v256h256v-256h-256z M1792 768v256h256v-256h-256zM2048 1536h256v256h-256v-256z" />
<glyph unicode="&#xcb;" horiz-adv-x="3072" d="M0 0h256v512h256v-512h256v-256h512v256h-512v256h1280v-256h-512v-256h512v256h256v512h256v-512h256v768h-256v256h-256v256h-256v256h256v256h-256v-256h-256v-256h-768v256h-256v256h-256v-256h256v-256h-256v-256h-256v-256h-256v-768zM768 768v256h256v-256h-256z M1792 768v256h256v-256h-256z" />
<glyph unicode="&#xcc;" horiz-adv-x="2304" d="M0 0h256v-256h256v256h-256v256h-256v-256zM0 512h256v-256h256v256h256v-256h512v256h256v-256h256v-256h256v256h-256v256h256v512h-256v256h-256v256h-256v256h-512v-256h-256v-256h-256v-256h-256v-512zM512 768v256h256v-256h-256zM1280 768v256h256v-256h-256z M1536 0v-256h256v256h-256z" />
<glyph unicode="&#xcd;" horiz-adv-x="2304" d="M0 0v-256h256v256h-256zM0 512h512v-256h256v-256h512v256h-512v256h512v-256h256v-256h256v-256h256v256h-256v256h-256v256h512v512h-256v256h-256v256h-256v256h-512v-256h-256v-256h-256v-256h-256v-512zM256 0h256v256h-256v-256zM512 0v-256h256v256h-256zM512 768 v256h256v-256h-256zM1280 0v-256h256v256h-256zM1280 768v256h256v-256h-256z" />
<glyph unicode="&#xce;" horiz-adv-x="3328" d="M0 0v-256h512v256h-512zM0 512h768v-256h-256v-256h512v256h256v-256h512v256h-512v256h512v-256h254v-256h514v-256h512v256h-512v256h-256v256h768v768h-256v256h-768v256h-1024v-256h-768v-256h-256v-768zM768 768v256h512v-256h-512zM1792 768v256h510v-256h-510z " />
<glyph unicode="&#xcf;" horiz-adv-x="3328" d="M0 512h512v-256h-256v-256h256v-256h512v256h-256v256h512v-256h512v256h-512v256h512v-256h512v-256h-256v-256h512v256h256v256h-256v256h512v768h-256v256h-768v256h-1024v-256h-768v-256h-256v-768zM768 768v256h512v-256h-512zM1792 768v256h510v-256h-510z" />
<glyph unicode="&#xd6;" d="M0 0h1280v1280h-1280v-1280zM0 1536h512v256h-512v-256zM256 768v256h768v-768h-512v512h-256zM768 1536h512v256h-512v-256z" />
<glyph unicode="&#xdc;" d="M0 0h1280v1280h-256v-1024h-512v512h-256v512h-256v-1280zM0 1536h512v256h-512v-256zM768 1536h512v256h-512v-256z" />
<glyph unicode="&#xdf;" d="M0 -256h512v256h512v256h-512v256h512v-256h256v256h-256v256h-768v256h768v-256h256v256h-256v256h-1024v-1536z" />
<glyph unicode="&#xe4;" d="M0 0h512v512h512v-512h256v1280h-1280v-1280zM0 1536h512v256h-512v-256zM256 768v256h768v-256h-768zM768 1536h512v256h-512v-256z" />
<glyph unicode="&#xf6;" d="M0 0h1280v1280h-1280v-1280zM0 1536h512v256h-512v-256zM256 768v256h768v-768h-512v512h-256zM768 1536h512v256h-512v-256z" />
<glyph unicode="&#xf7;" d="M0 512h1280v256h-1280v-256zM512 0h256v258h-256v-258zM512 1022h256v258h-256v-258z" />
<glyph unicode="&#xfc;" d="M0 0h1280v1280h-256v-1024h-512v512h-256v512h-256v-1280zM0 1536h512v256h-512v-256zM768 1536h512v256h-512v-256z" />
<glyph unicode="&#x2000;" horiz-adv-x="896" />
<glyph unicode="&#x2001;" horiz-adv-x="1792" />
<glyph unicode="&#x2002;" horiz-adv-x="896" />
<glyph unicode="&#x2003;" horiz-adv-x="1792" />
<glyph unicode="&#x2004;" horiz-adv-x="597" />
<glyph unicode="&#x2005;" horiz-adv-x="448" />
<glyph unicode="&#x2006;" horiz-adv-x="298" />
<glyph unicode="&#x2007;" horiz-adv-x="298" />
<glyph unicode="&#x2008;" horiz-adv-x="224" />
<glyph unicode="&#x2009;" horiz-adv-x="358" />
<glyph unicode="&#x200a;" horiz-adv-x="99" />
<glyph unicode="&#x2010;" d="M0 512h1280v256h-1280v-256z" />
<glyph unicode="&#x2011;" d="M0 512h1280v256h-1280v-256z" />
<glyph unicode="&#x2012;" d="M0 512h1280v256h-1280v-256z" />
<glyph unicode="&#x2013;" horiz-adv-x="1280" d="M0 512h1024v256h-1024v-256z" />
<glyph unicode="&#x2014;" horiz-adv-x="2304" d="M0 512h2048v256h-2048v-256z" />
<glyph unicode="&#x202f;" horiz-adv-x="358" />
<glyph unicode="&#x205f;" horiz-adv-x="448" />
<glyph unicode="&#x25fc;" horiz-adv-x="1280" d="M0 0v1280h1280v-1280h-1280z" />
</font>
</defs>
</svg>
